<?xml version="1.0" encoding="UTF-8"?>
<svg width="43px" height="50px" viewBox="0 0 43 50" version="1.1" xmlns="http://www.w3.org/2000/svg" xmlns:xlink="http://www.w3.org/1999/xlink">
    <title>fingerprint</title>
    <g id="Page-1" stroke="none" stroke-width="1" fill="none" fill-rule="evenodd">
        <g id="Log-In-Page" transform="translate(-672.000000, -150.000000)" fill="#0B1C44" fill-rule="nonzero" stroke="#0B1C44">
            <g id="LOGO" transform="translate(548.000000, 140.000000)">
                <g id="fingerprint" transform="translate(124.000000, 10.000000)">
                    <path d="M37.9954932,10.9458594 C37.6327357,10.9458594 37.2719823,10.8129782 36.9833796,10.5389107 C32.5601421,6.36145743 26.8842887,4.06095138 21,4.06095138 C15.1157113,4.06095138 9.4398579,6.36145743 5.01662045,10.5409869 C4.40133549,11.120266 3.45135155,11.0725118 2.89218379,10.4392497 C2.33301603,9.80391143 2.37710811,8.81768366 2.99038888,8.23840461 C7.97078991,3.53565532 14.3661459,0.946547884 21,0.946547884 C27.6338541,0.946547884 34.0292101,3.53565532 39.0096111,8.23840461 C39.6228919,8.81768366 39.666984,9.80183516 39.1078162,10.4392497 C38.8111968,10.7756053 38.4043471,10.9458594 37.9954932,10.9458594 L37.9954932,10.9458594 Z" id="Path"></path>
                    <path d="M40.998831,20.9443616 C40.5168534,20.9443616 40.0408756,20.7049417 39.752889,20.2591251 C35.5890827,13.8608322 28.7654002,10.0404321 21.4997382,10.0404321 C14.2340762,10.0404321 7.41039365,13.8608322 3.24658736,20.2591251 C2.78460885,20.9711932 1.8506523,21.161078 1.16468421,20.682238 C0.47671622,20.205462 0.29272478,19.2436541 0.754703287,18.53365 C5.47648362,11.2788114 13.2321228,6.94654788 21.4997382,6.94654788 C29.7673535,6.94654788 37.5229927,11.2788114 42.2447731,18.535714 C42.7067516,19.2457181 42.52476,20.207526 41.8347921,20.684302 C41.578804,20.8597391 41.2888175,20.9443616 40.998831,20.9443616 Z" id="Path"></path>
                    <path d="M16.6995947,48.9465479 C16.3085106,48.9465479 15.9174265,48.8004568 15.6195542,48.5082747 C15.287234,48.182531 7.5,40.4377298 7.5,32.9811623 C7.5,25.2422836 13.7796353,18.9465479 21.5,18.9465479 C29.2203647,18.9465479 35.5,25.2422836 35.5,32.9811623 C35.5,33.7984826 34.8191489,34.4618151 33.9802432,34.4618151 C33.1413374,34.4618151 32.4604863,33.7984826 32.4604863,32.9811623 C32.4604863,26.8749501 27.5445795,21.9078535 21.5,21.9078535 C15.4554205,21.9078535 10.5395137,26.8749501 10.5395137,32.9811623 C10.5395137,39.2334655 17.7066869,46.3524442 17.7796353,46.4235155 C18.3713273,47.0039314 18.3672746,47.9416782 17.7695035,48.5181457 C17.4736575,48.8044052 17.0866261,48.9465479 16.6995947,48.9465479 L16.6995947,48.9465479 Z" id="Path"></path>
                    <path d="M25.738271,48.9465479 C22.130826,48.9465479 13.7681126,42.1321411 12.9582372,34.5433698 C12.6722812,31.8608921 13.5321489,29.1168623 15.2558837,27.2027923 C16.755653,25.5389016 18.7813413,24.615621 20.9590063,24.6037077 L21.0009998,24.6037077 C23.1246731,24.6037077 25.1323643,25.4316819 26.6601292,26.9387142 C28.2558837,28.5132552 29.1337487,30.6278657 29.1337487,32.8913924 L29.1337487,33.8623263 C29.1337487,36.2549137 31.0094601,38.2007525 33.3171051,38.2007525 C35.62475,38.2007525 37.5024612,36.2549137 37.5024612,33.8623263 L37.5024612,33.5227973 C37.5024612,24.2502798 30.7375019,16.536419 22.1008306,15.9645806 C17.5975235,15.6607915 13.278188,17.2055492 9.94470082,20.2990358 C6.48523304,23.5116553 4.50153822,28.1022464 4.50153822,32.8913924 C4.50153822,36.8307232 5.84533149,40.6687909 8.28495616,43.6987398 C8.80087679,44.342058 8.69689279,45.2772519 8.04899246,45.7915093 C7.40309183,46.3057667 6.45923704,46.2005325 5.93931703,45.5572144 C3.07775727,42.0010948 1.5,37.501839 1.5,32.8894069 C1.5,27.2782432 3.83164129,21.8954178 7.89301646,18.1228732 C11.8384095,14.4575483 16.9536225,12.6348137 22.2968005,12.9902271 C32.5032303,13.6672995 40.5,22.6856666 40.5,33.5208117 L40.5,33.8603407 C40.5,37.8949779 37.2764959,41.1770916 33.3151054,41.1770916 C29.3537148,41.1770916 26.1322104,37.8949779 26.1322104,33.8603407 L26.1322104,32.8894069 C26.1322104,31.4240711 25.5682972,30.061984 24.5444547,29.0493536 C23.5846024,28.1002608 22.3267959,27.5800468 21.0009998,27.5800468 C20.9910014,27.5800468 20.9830026,27.5800468 20.9730042,27.5800468 C19.2832641,27.587989 18.1454392,28.4596453 17.4895401,29.1883421 C16.31972,30.4849061 15.7398093,32.3711784 15.9377788,34.229653 C16.599677,40.4205972 23.7645747,45.9702088 25.7362713,45.9702088 C26.564144,45.9702088 27.2360406,46.6373535 27.2360406,47.4593711 C27.2360406,48.2813887 26.5661437,48.9465479 25.738271,48.9465479 L25.738271,48.9465479 Z" id="Path"></path>
                    <path d="M31.0471614,45.9465479 C25.8479362,45.9465479 19.5,39.2688535 19.5,31.4734597 C19.5,30.6306044 20.1508717,29.9465479 20.9528386,29.9465479 C21.7548055,29.9465479 22.4056772,30.6306044 22.4056772,31.4734597 C22.4056772,37.5159588 27.2387871,42.8927242 31.0471614,42.8927242 C31.8491283,42.8927242 32.5,43.5767807 32.5,44.4196361 C32.5,45.2624914 31.8491283,45.9465479 31.0471614,45.9465479 Z" id="Path"></path>
                </g>
            </g>
        </g>
    </g>
</svg>