<?xml version="1.0" encoding="UTF-8"?>
<svg width="186px" height="26px" viewBox="0 0 186 26" version="1.1" xmlns="http://www.w3.org/2000/svg" xmlns:xlink="http://www.w3.org/1999/xlink">
    <title>Group 23</title>
    <g id="Page-1" stroke="none" stroke-width="1" fill="none" fill-rule="evenodd">
        <g id="Home" transform="translate(-30.000000, -1441.000000)" fill="#FFFFFF" fill-rule="nonzero">
            <g id="Group-19" transform="translate(0.000000, 1429.000000)">
                <g id="Group-23" transform="translate(30.000000, 12.000000)">
                    <text id="R-MOR" font-family="ProximaNova-Semibold, Proxima Nova" font-size="23.111107" font-weight="500">
                        <tspan x="0" y="21">R-MOR</tspan>
                    </text>
                    <g id="Group-20" transform="translate(92.000000, 5.692308)" stroke="#FFFFFF">
                        <g id="navigation-right-2">
                            <path d="M3.29131811,0.558050396 L7.65959112,6.30838678 C8.11346963,6.90974179 8.11346963,7.70564283 7.65959112,8.30699783 L3.29131811,14.0579419 C3.17207073,14.2144309 2.97686304,14.3076923 2.76850536,14.3076923 L0.636782816,14.3076923 C0.399680961,14.3076923 0.182234751,14.1869704 0.0724261649,13.9945036 C-0.0373824207,13.8020368 -0.021375585,13.5696356 0.113970068,13.3913331 L4.48157962,7.6409967 C4.6338041,7.43999643 4.6338041,7.17356519 4.48157962,6.97256492 L0.113970068,1.22405152 C-0.021375585,1.04574901 -0.0373824207,0.81334786 0.0724261649,0.620881035 C0.182234751,0.428414211 0.399680961,0.307692308 0.636782816,0.307692308 L2.76850536,0.307692308 C2.97701325,0.307692308 3.17229485,0.401250766 3.29131811,0.558050396 Z" id="Path" transform="translate(4.000000, 7.307692) scale(-1, 1) translate(-4.000000, -7.307692) "></path>
                        </g>
                        <g id="navigation-right-2-copy" transform="translate(17.000000, 0.000000)" opacity="0.800000012">
                            <path d="M3.29131811,0.558050396 L7.65959112,6.30838678 C8.11346963,6.90974179 8.11346963,7.70564283 7.65959112,8.30699783 L3.29131811,14.0579419 C3.17207073,14.2144309 2.97686304,14.3076923 2.76850536,14.3076923 L0.636782816,14.3076923 C0.399680961,14.3076923 0.182234751,14.1869704 0.0724261649,13.9945036 C-0.0373824207,13.8020368 -0.021375585,13.5696356 0.113970068,13.3913331 L4.48157962,7.6409967 C4.6338041,7.43999643 4.6338041,7.17356519 4.48157962,6.97256492 L0.113970068,1.22405152 C-0.021375585,1.04574901 -0.0373824207,0.81334786 0.0724261649,0.620881035 C0.182234751,0.428414211 0.399680961,0.307692308 0.636782816,0.307692308 L2.76850536,0.307692308 C2.97701325,0.307692308 3.17229485,0.401250766 3.29131811,0.558050396 Z" id="Path" transform="translate(4.000000, 7.307692) scale(-1, 1) translate(-4.000000, -7.307692) "></path>
                        </g>
                        <g id="navigation-right-2-copy-2" transform="translate(34.000000, 0.000000)" opacity="0.600000024">
                            <path d="M3.29131811,0.558050396 L7.65959112,6.30838678 C8.11346963,6.90974179 8.11346963,7.70564283 7.65959112,8.30699783 L3.29131811,14.0579419 C3.17207073,14.2144309 2.97686304,14.3076923 2.76850536,14.3076923 L0.636782816,14.3076923 C0.399680961,14.3076923 0.182234751,14.1869704 0.0724261649,13.9945036 C-0.0373824207,13.8020368 -0.021375585,13.5696356 0.113970068,13.3913331 L4.48157962,7.6409967 C4.6338041,7.43999643 4.6338041,7.17356519 4.48157962,6.97256492 L0.113970068,1.22405152 C-0.021375585,1.04574901 -0.0373824207,0.81334786 0.0724261649,0.620881035 C0.182234751,0.428414211 0.399680961,0.307692308 0.636782816,0.307692308 L2.76850536,0.307692308 C2.97701325,0.307692308 3.17229485,0.401250766 3.29131811,0.558050396 Z" id="Path" transform="translate(4.000000, 7.307692) scale(-1, 1) translate(-4.000000, -7.307692) "></path>
                        </g>
                        <g id="navigation-right-2-copy-3" transform="translate(51.000000, 0.000000)" opacity="0.400000006">
                            <path d="M3.29131811,0.558050396 L7.65959112,6.30838678 C8.11346963,6.90974179 8.11346963,7.70564283 7.65959112,8.30699783 L3.29131811,14.0579419 C3.17207073,14.2144309 2.97686304,14.3076923 2.76850536,14.3076923 L0.636782816,14.3076923 C0.399680961,14.3076923 0.182234751,14.1869704 0.0724261649,13.9945036 C-0.0373824207,13.8020368 -0.021375585,13.5696356 0.113970068,13.3913331 L4.48157962,7.6409967 C4.6338041,7.43999643 4.6338041,7.17356519 4.48157962,6.97256492 L0.113970068,1.22405152 C-0.021375585,1.04574901 -0.0373824207,0.81334786 0.0724261649,0.620881035 C0.182234751,0.428414211 0.399680961,0.307692308 0.636782816,0.307692308 L2.76850536,0.307692308 C2.97701325,0.307692308 3.17229485,0.401250766 3.29131811,0.558050396 Z" id="Path" transform="translate(4.000000, 7.307692) scale(-1, 1) translate(-4.000000, -7.307692) "></path>
                        </g>
                        <g id="navigation-right-2-copy-4" transform="translate(68.000000, 0.000000)" opacity="0.200000003">
                            <path d="M3.29131811,0.558050396 L7.65959112,6.30838678 C8.11346963,6.90974179 8.11346963,7.70564283 7.65959112,8.30699783 L3.29131811,14.0579419 C3.17207073,14.2144309 2.97686304,14.3076923 2.76850536,14.3076923 L0.636782816,14.3076923 C0.399680961,14.3076923 0.182234751,14.1869704 0.0724261649,13.9945036 C-0.0373824207,13.8020368 -0.021375585,13.5696356 0.113970068,13.3913331 L4.48157962,7.6409967 C4.6338041,7.43999643 4.6338041,7.17356519 4.48157962,6.97256492 L0.113970068,1.22405152 C-0.021375585,1.04574901 -0.0373824207,0.81334786 0.0724261649,0.620881035 C0.182234751,0.428414211 0.399680961,0.307692308 0.636782816,0.307692308 L2.76850536,0.307692308 C2.97701325,0.307692308 3.17229485,0.401250766 3.29131811,0.558050396 Z" id="Path" transform="translate(4.000000, 7.307692) scale(-1, 1) translate(-4.000000, -7.307692) "></path>
                        </g>
                        <g id="navigation-right-2-copy-5" transform="translate(85.000000, 0.000000)" opacity="0.100000001">
                            <path d="M3.29131811,0.558050396 L7.65959112,6.30838678 C8.11346963,6.90974179 8.11346963,7.70564283 7.65959112,8.30699783 L3.29131811,14.0579419 C3.17207073,14.2144309 2.97686304,14.3076923 2.76850536,14.3076923 L0.636782816,14.3076923 C0.399680961,14.3076923 0.182234751,14.1869704 0.0724261649,13.9945036 C-0.0373824207,13.8020368 -0.021375585,13.5696356 0.113970068,13.3913331 L4.48157962,7.6409967 C4.6338041,7.43999643 4.6338041,7.17356519 4.48157962,6.97256492 L0.113970068,1.22405152 C-0.021375585,1.04574901 -0.0373824207,0.81334786 0.0724261649,0.620881035 C0.182234751,0.428414211 0.399680961,0.307692308 0.636782816,0.307692308 L2.76850536,0.307692308 C2.97701325,0.307692308 3.17229485,0.401250766 3.29131811,0.558050396 Z" id="Path" transform="translate(4.000000, 7.307692) scale(-1, 1) translate(-4.000000, -7.307692) "></path>
                        </g>
                    </g>
                </g>
            </g>
        </g>
    </g>
</svg>